<svg width="400" height="378" viewBox="0 0 400 378" fill="none" xmlns="http://www.w3.org/2000/svg">
<path fill-rule="evenodd" clip-rule="evenodd" d="M204.179 1.7969C245.034 2.37377 287.753 0.71215 321.808 23.2587C356.626 46.3102 377.834 84.7475 389.833 124.71C401.626 163.987 405.614 207.525 388.296 244.704C371.866 279.976 332.008 294.493 300.252 317.022C268.936 339.239 242.164 369.615 204.179 375.325C162.809 381.544 120.207 371.249 84.515 349.452C46.7836 326.409 7.11251 294.704 0.623614 251.012C-5.72219 208.283 38.111 176.462 52.7892 135.829C66.7305 97.2354 53.3685 47.1183 84.1092 19.9024C115.158 -7.58672 162.691 1.21108 204.179 1.7969Z" fill="#FD4648"/>
</svg>
