<svg width="418" height="481" viewBox="0 0 418 481" fill="none" xmlns="http://www.w3.org/2000/svg">
<path fill-rule="evenodd" clip-rule="evenodd" d="M185.737 8.88959C226.275 15.0121 267.135 28.5616 295.854 57.8035C322.154 84.5823 315.848 128.654 335.035 160.907C357.78 199.14 424.115 218.367 417.545 262.36C410.959 306.45 335.627 300.023 308.924 335.731C278.618 376.257 303.451 452.937 258.147 475.513C215.709 496.66 167.732 451.644 127.891 425.941C96.155 405.467 76.2161 373.725 53.5536 343.522C32.5691 315.555 3.01433 290.557 0.165088 255.716C-2.64616 221.34 31.2767 195.624 38.7042 161.941C49.0782 114.895 18.547 55.7133 51.9308 20.9631C83.5881 -11.99 140.541 2.06348 185.737 8.88959Z" fill="#FFBA07"/>
</svg>
