<svg width="400" height="469" viewBox="0 0 400 469" fill="none" xmlns="http://www.w3.org/2000/svg">
<path fill-rule="evenodd" clip-rule="evenodd" d="M150.863 7.74048C193.551 12.0713 231.805 29.302 270.278 48.2975C313.464 69.6199 367.442 82.2893 389.042 125.337C410.711 168.521 396.243 221.542 380.046 267.062C365.747 307.248 339.734 343.994 303.33 366.223C271.281 385.794 228.069 365.117 193.912 380.72C150.266 400.658 128.319 481.192 82.4436 467.126C36.2866 452.973 53.7348 377.988 37.1409 332.651C27.3174 305.812 9.22018 283.348 4.84074 255.105C0.42481 226.627 10.7981 199.499 12.029 170.707C14.185 120.279 -17.9415 60.7991 14.7907 22.3773C44.9861 -13.0666 104.539 3.04069 150.863 7.74048Z" fill="#52944A"/>
</svg>
