<svg width="400" height="360" viewBox="0 0 400 360" fill="none" xmlns="http://www.w3.org/2000/svg">
<path fill-rule="evenodd" clip-rule="evenodd" d="M199.672 17.5297C230.322 8.69893 264.06 -8.83551 292.631 5.34684C321.069 19.4629 321.951 59.5252 338.66 86.5213C358.497 118.573 401.027 141.116 399.981 178.795C398.946 216.082 356.777 236.824 333.676 266.11C309.203 297.136 297.685 343.619 260.172 356.039C222.644 368.463 182.844 345.413 147.476 327.756C116.669 312.376 94.8511 286.317 70.921 261.558C45.5094 235.267 10.8239 213.99 2.9954 178.273C-4.96404 141.958 2.6369 98.0222 29.4276 72.2472C56.035 46.6486 100.607 61.8414 135.758 50.5436C159.059 43.0547 176.154 24.3055 199.672 17.5297Z" fill="#FD4648"/>
</svg>
