<svg width="315" height="197" viewBox="0 0 315 197" fill="none" xmlns="http://www.w3.org/2000/svg">
<path d="M9.00009 182.29C28.3972 165.069 154.235 42.1791 169.88 32.01C185.524 21.841 217.188 -0.254281 254.304 13.2478C286.603 25.004 288.133 54.1167 288.224 63.7642C289.04 158.902 214.739 193.32 136.47 172.971C105.725 164.979 75.1839 135.923 71.1934 101.754C70.1618 92.911 70.6265 83.6715 74.2656 75.5544C77.678 67.9362 83.7432 61.701 90.7606 57.1889C111.371 43.9363 138.885 45.8069 161.252 55.8059C183.62 65.8048 201.974 82.8099 219.897 99.5316C234.918 113.555 249.951 127.567 264.575 142.01C279.2 156.453 294.164 170.295 305.183 187.187" stroke="white" stroke-width="18" stroke-miterlimit="10" stroke-linecap="round"/>
</svg>
