<svg width="390" height="248" viewBox="0 0 390 248" fill="none" xmlns="http://www.w3.org/2000/svg">
<path d="M380.267 187.015C366.346 207.319 350.157 240.876 321.747 238.676C311.249 237.792 302.849 229.312 301.194 219.086C298.892 204.984 303.835 192.082 307.928 178.444C313.347 161.802 320.262 145.67 327.053 129.481C334.342 110.673 345.622 90.1765 341.541 69.5664C337.369 49.4663 314.322 43.5599 298.382 53.797C271.242 76.7198 235.089 128.393 211.169 152.676C203.732 159.614 191.432 158.945 185.355 149.91C180.027 141.725 180.718 130.83 182.68 121.908C188.518 97.6928 202.031 59.5447 203.29 36.0437C204.809 19.9115 192.236 10.6834 177.623 9.11892C148.669 6.81757 114.206 38.4697 94.5365 57.6061C79.1412 73.3642 65.4691 91.1402 52.8853 109.778C29.4637 146.135 14.4878 180.61 33.2615 201.208C40.8004 209.53 54.6312 215.13 66.4441 212.693C89.4463 209.008 100.284 187.525 104.252 166.223C108.254 147.382 108.821 128.313 105.159 109.392C94.0263 49.6364 45.1197 32.2118 9.00085 85.7325" stroke="#B8C4CE" stroke-width="18" stroke-miterlimit="10" stroke-linecap="round"/>
</svg>
